# xmcd CD database file
#
# Track frame offsets:
#	150
#	19233
#	40153
#	61523
#	75655
#	101888
#	121966
#	139314
#	165329
#	185144
#	210807
#	225047
#
# Disc length: 3255 seconds
#
# Revision: 0
# Processed by: cddbd v1.5.2PL0 Copyright (c) Steve Scherf et al.
# Submitted via: CDex 1.51
#
DISCID=8e0cb50c
DTITLE=Aventura - Unknown
DYEAR=1900
DGENRE=Merengue
TTITLE0=Obsession
TTITLE1=I Believe (Yo Creo)
TTITLE2=Todavia Me Amas
TTITLE3=Cuadno Volveras
TTITLE4=Amor De Madre
TTITLE5=Gone
TTITLE6=Mi Peurto Rico
TTITLE7=Ensename A Olivedar
TTITLE8=9:15
TTITLE9=Obsession - Dance Mix
TTITLE10=Cuando Volveras - Dance Mix
TTITLE11=Obsession - English Mix
EXTD=
EXTT0=
EXTT1=
EXTT2=
EXTT3=
EXTT4=
EXTT5=
EXTT6=
EXTT7=
EXTT8=
EXTT9=
EXTT10=
EXTT11=
PLAYORDER=
